<?xml version="1.0"?>
<svg version="1.1" xmlns="http://www.w3.org/2000/svg" width="400px" height="200px" style=""><path fill="#0e7c86" d="M92.412,100.57l0,18.202c0,6.612-1.976,10.108-8.664,10.108c-1.216,0-2.888-0.266-2.888-0.266l0.494-3.914l1.824,0c2.28,0,3.344-1.254,3.344-3.648l0-20.482l-2.85-1.14l0-3.23l11.59-0.19l0,3.42z M110.82338,101.9c6.156,0,9.576,3.724,9.576,10.26c0,6.84-3.99,11.02-10.146,11.02c-6.194,0-9.69-3.23-9.69-10.45c0-6.84,4.066-10.83,10.26-10.83z M110.63338,106.46c-2.774,0-4.18,1.52-4.18,6.08c0,4.18,1.216,6.08,3.99,6.08c2.736,0,4.066-1.71,4.066-6.27c0-3.876-1.14-5.89-3.876-5.89z M133.11076,93.35l0,10.564c0.646-0.494,2.546-2.014,5.434-2.014c5.092,0,7.79,3.686,7.79,10.07c0,7.144-3.724,11.286-11.02,11.286c-4.18,0-7.904-0.836-7.904-0.836l0-24.966l-2.85-0.76l0-3.04z M133.11076,108.17l0,10.222s0.874,0.304,2.812,0.304c3.306,0,4.522-2.508,4.522-6.346c0-3.8-1.064-5.89-3.724-5.89c-2.28,0-3.61,1.71-3.61,1.71z M170.33214,104.56l-0.874-3.648s-1.786-0.608-4.256-0.608c-3.99,0-6.27,2.964-6.27,9.31c0,6.156,2.47,8.74,6.46,8.74c3.8,0,7.22-2.66,7.22-2.66l2.09,3.42s-3.99,4.142-9.956,4.142c-7.714,0-12.16-4.636-12.16-13.452c0-8.93,5.016-14.25,12.806-14.25c4.598,0,8.854,1.786,8.854,1.786l-0.19,7.22l-3.724,0z M187.98352,93.35l0,11.134c1.102-0.912,3.572-2.584,6.384-2.584c3.876,0,5.966,2.584,5.966,6.84l0,10.07l2.66,0.95l0,3.04l-10.336,0l0-3.04l1.976-0.912l0-9.196c0-1.9-0.76-3.04-2.508-3.04c-2.128,0-4.142,2.014-4.142,2.014l0,10.184l2.014,0.95l0,3.04l-10.754,0l0-3.04l3.04-0.95l0-21.356l-3.04-0.76l0-3.04z M215.8949,102.28l0.342,2.622s2.736-3.002,5.282-3.002c2.09,0,3.534,0.684,3.534,0.684l-0.304,7.296l-3.42,0l-0.57-3.23c-2.204,0-4.104,2.128-4.104,2.128l0,10.032l3.8,0.95l0,3.04l-12.54,0l0-3.04l3.04-0.95l0-12.35l-3.04-0.95l0-3.04z M239.47428,101.9c6.156,0,9.576,3.724,9.576,10.26c0,6.84-3.99,11.02-10.146,11.02c-6.194,0-9.69-3.23-9.69-10.45c0-6.84,4.066-10.83,10.26-10.83z M239.28428,106.46c-2.774,0-4.18,1.52-4.18,6.08c0,4.18,1.216,6.08,3.99,6.08c2.736,0,4.066-1.71,4.066-6.27c0-3.876-1.14-5.89-3.876-5.89z M262.40766,102.28l0.266,2.622s3.61-2.926,6.992-2.926c3.686,0,5.776,2.622,5.776,6.764l0,10.07l2.66,0.95l0,3.04l-10.45,0l0-3.04l2.09-0.95l0-9.044c0-1.748-0.988-3.04-2.584-3.04c-2.356,0-4.066,2.166-4.066,2.166l0,9.918l2.09,0.95l0,3.04l-10.83,0l0-3.04l3.04-0.95l0-12.35l-3.04-0.95l0-3.04z M285.37904,96.01c0-2.166,1.558-3.42,3.268-3.42c1.976,0,3.192,1.026,3.192,3.42c0,2.242-1.634,3.458-3.192,3.458c-2.052,0-3.268-1.216-3.268-3.458z M291.76304,118.81l2.66,0.95l0,3.04l-11.4,0l0-3.04l3.04-0.95l0-12.35l-3.04-0.95l0-3.04l8.74-0.19l0,16.53z M315.68442,116.606l1.9,3.344c-0.95,0.836-3.914,3.23-8.17,3.23c-6.27,0-9.88-3.876-9.88-10.336c0-6.764,3.8-10.944,10.45-10.944c3.268,0,6.65,1.33,6.65,1.33l-0.19,6.232l-3.42,0l-0.532-2.698s-1.102-0.304-2.622-0.304c-2.736,0-4.446,1.824-4.446,5.624c0,4.142,1.596,6.536,4.75,6.536c2.66,0,4.332-1.33,5.51-2.014z M330.3338,118.81l3.42,0.95l0,3.04l-12.198,0l0-3.04l3.04-0.95l0-21.356l-3.04-0.76l0-3.04l8.778-0.304l0,25.46z M356.45918,113.794l-12.616,0c0.228,3.04,1.976,4.826,4.598,4.826c3.154,0,6.384-1.786,6.384-1.786l1.634,3.154s-3.8,3.192-8.664,3.192c-6.536,0-9.88-3.8-9.88-10.26c0-6.65,3.762-11.02,10.146-11.02c5.662,0,8.626,3.496,8.626,8.93c0,1.444-0.228,2.85-0.228,2.964z M343.91918,110.26l6.878,0c0-2.166-0.912-3.8-3.116-3.8c-2.128,0-3.458,1.558-3.762,3.8z"/><path fill="#" d=""/></svg>
