<svg width="197" height="34" viewBox="0 0 197 34" fill="none" xmlns="http://www.w3.org/2000/svg">
<path d="M8.696 1.124V26.036C8.696 28.412 8.24 30.2 7.328 31.4C6.44 32.624 4.868 33.236 2.612 33.236C1.676 33.236 0.836 33.104 0.0919999 32.84L0.704 30.356C1.208 30.548 1.856 30.644 2.648 30.644C3.776 30.644 4.544 30.236 4.952 29.42C5.384 28.604 5.6 27.38 5.6 25.748V1.124H8.696ZM21.0974 11.492C20.1854 11.492 19.3934 11.696 18.7214 12.104C18.0734 12.512 17.5934 13.04 17.2814 13.688C16.7054 14.912 16.4174 16.22 16.4174 17.612C16.4174 21.932 17.9174 24.092 20.9174 24.092C21.8294 24.092 22.6094 23.888 23.2574 23.48C23.9054 23.072 24.3974 22.544 24.7334 21.896C25.3094 20.696 25.5974 19.388 25.5974 17.972C25.5974 13.652 24.0974 11.492 21.0974 11.492ZM21.0974 9.152C23.7614 9.152 25.7054 9.98 26.9294 11.636C28.1534 13.292 28.7654 15.452 28.7654 18.116C28.7654 20.036 28.2614 21.812 27.2534 23.444C26.7014 24.332 25.8734 25.052 24.7694 25.604C23.6654 26.156 22.3454 26.432 20.8094 26.432C18.1694 26.432 16.2494 25.64 15.0494 24.056C13.8494 22.472 13.2494 20.348 13.2494 17.684C13.2494 16.124 13.4894 14.804 13.9694 13.724C14.4734 12.644 15.0014 11.816 15.5534 11.24C16.1054 10.64 16.8614 10.148 17.8214 9.764C18.7814 9.356 19.8734 9.152 21.0974 9.152ZM38.9785 23.984C40.7785 23.984 42.1705 23.372 43.1545 22.148C44.1385 20.924 44.6305 19.448 44.6305 17.72C44.6305 15.992 44.1985 14.612 43.3345 13.58C42.4705 12.524 41.3545 11.996 39.9865 11.996C38.6425 11.996 37.2025 12.404 35.6665 13.22V23.336C36.7945 23.768 37.8985 23.984 38.9785 23.984ZM35.6665 0.151998V10.916C37.4905 9.884 39.3265 9.368 41.1745 9.368C43.0465 9.368 44.6065 10.124 45.8545 11.636C47.1025 13.124 47.7265 15.08 47.7265 17.504C47.7265 19.928 46.9945 22.028 45.5305 23.804C44.0905 25.556 42.0265 26.432 39.3385 26.432C37.2745 26.432 35.0665 25.904 32.7145 24.848V0.151998H35.6665ZM64.2468 14.444C64.2468 17.204 64.9668 19.448 66.4068 21.176C67.8708 22.904 69.8388 23.768 72.3108 23.768C74.8068 23.768 77.2428 23.156 79.6188 21.932L80.0148 24.668C77.3268 25.844 74.6868 26.432 72.0948 26.432C69.5028 26.432 67.3428 25.856 65.6148 24.704C63.9108 23.528 62.6628 22.052 61.8708 20.276C61.0788 18.5 60.6828 16.556 60.6828 14.444C60.6828 10.412 61.8588 7.112 64.2108 4.544C66.5628 1.976 69.6948 0.692 73.6068 0.692C75.4068 0.692 77.3508 1.016 79.4388 1.664L78.5748 4.184C76.9188 3.68 75.2628 3.428 73.6068 3.428C70.6788 3.428 68.3868 4.412 66.7308 6.38C65.0748 8.348 64.2468 11.036 64.2468 14.444ZM86.4338 0.151998V11.276C88.2338 9.86 90.1658 9.152 92.2298 9.152C93.8378 9.152 95.1098 9.56 96.0458 10.376C97.0058 11.168 97.4858 12.212 97.4858 13.508V26H94.4258V13.724C94.4258 13.1 94.1738 12.62 93.6698 12.284C93.1898 11.948 92.5418 11.78 91.7258 11.78C90.0218 11.78 88.2578 12.392 86.4338 13.616V26H83.3738V0.151998H86.4338ZM102.537 9.584H104.481L105.381 12.464H105.525C106.845 10.76 108.657 9.728 110.961 9.368L111.285 12.212C110.157 12.284 109.065 12.572 108.009 13.076C106.953 13.58 106.149 14.252 105.597 15.092V26H102.537V9.584ZM120.625 11.492C119.713 11.492 118.921 11.696 118.249 12.104C117.601 12.512 117.121 13.04 116.809 13.688C116.233 14.912 115.945 16.22 115.945 17.612C115.945 21.932 117.445 24.092 120.445 24.092C121.357 24.092 122.137 23.888 122.785 23.48C123.433 23.072 123.925 22.544 124.261 21.896C124.837 20.696 125.125 19.388 125.125 17.972C125.125 13.652 123.625 11.492 120.625 11.492ZM120.625 9.152C123.289 9.152 125.233 9.98 126.457 11.636C127.681 13.292 128.293 15.452 128.293 18.116C128.293 20.036 127.789 21.812 126.781 23.444C126.229 24.332 125.401 25.052 124.297 25.604C123.193 26.156 121.873 26.432 120.337 26.432C117.697 26.432 115.777 25.64 114.577 24.056C113.377 22.472 112.777 20.348 112.777 17.684C112.777 16.124 113.017 14.804 113.497 13.724C114.001 12.644 114.529 11.816 115.081 11.24C115.633 10.64 116.389 10.148 117.349 9.764C118.309 9.356 119.401 9.152 120.625 9.152ZM146.462 13.58V26H143.402V13.724C143.402 13.1 143.15 12.62 142.646 12.284C142.166 11.948 141.518 11.78 140.702 11.78C138.998 11.78 137.234 12.392 135.41 13.616V26H132.35V9.584H134.294L135.194 11.456C137.042 9.92 139.046 9.152 141.206 9.152C142.814 9.152 144.086 9.56 145.022 10.376C145.982 11.192 146.462 12.26 146.462 13.58ZM154.714 5.732C154.33 6.116 153.862 6.308 153.31 6.308C152.758 6.308 152.29 6.116 151.906 5.732C151.522 5.324 151.33 4.844 151.33 4.292C151.33 3.74 151.522 3.272 151.906 2.888C152.314 2.48 152.782 2.276 153.31 2.276C153.838 2.276 154.294 2.48 154.678 2.888C155.086 3.272 155.29 3.74 155.29 4.292C155.29 4.844 155.098 5.324 154.714 5.732ZM151.798 9.584H154.858V26H151.798V9.584ZM166.778 9.152C168.386 9.152 170.018 9.512 171.674 10.232L170.774 12.464C169.55 11.936 168.242 11.672 166.85 11.672C165.482 11.672 164.39 12.188 163.574 13.22C162.782 14.252 162.386 15.764 162.386 17.756C162.386 19.748 162.806 21.272 163.646 22.328C164.486 23.384 165.59 23.912 166.958 23.912C168.326 23.912 169.742 23.576 171.206 22.904L171.89 25.28C170.21 26.048 168.506 26.432 166.778 26.432C164.546 26.432 162.722 25.628 161.306 24.02C159.914 22.388 159.218 20.3 159.218 17.756C159.218 15.188 159.914 13.112 161.306 11.528C162.722 9.944 164.546 9.152 166.778 9.152ZM175.026 0.151998H177.978V26H175.026V0.151998ZM189.598 23.912C191.326 23.912 193.054 23.396 194.782 22.364L195.826 24.524C193.81 25.796 191.65 26.432 189.346 26.432C187.066 26.432 185.254 25.712 183.91 24.272C182.566 22.808 181.894 20.708 181.894 17.972C181.894 15.236 182.59 13.088 183.982 11.528C185.374 9.944 187.222 9.152 189.526 9.152C191.614 9.152 193.258 9.8 194.458 11.096C194.962 11.624 195.382 12.392 195.718 13.4C196.078 14.408 196.258 15.596 196.258 16.964L195.142 18.224H184.954C185.026 22.016 186.574 23.912 189.598 23.912ZM193.234 15.956C193.234 14.612 192.886 13.532 192.19 12.716C191.494 11.9 190.57 11.492 189.418 11.492C188.29 11.492 187.33 11.9 186.538 12.716C185.746 13.508 185.266 14.588 185.098 15.956H193.234Z" fill="#0E7C86"/>
</svg>
